<?xml version="1.0" encoding="UTF-8"?>
<svg id="Layer_2" data-name="Layer 2" xmlns="http://www.w3.org/2000/svg" viewBox="0 0 24 24">
  <defs>
    <style>
      .cls-1 {
        stroke-width: 0px;
      }
    </style>
  </defs>
  <g id="Layer_1-2" data-name="Layer 1">
    <g>
      <path class="cls-1" d="m3,22h4v2H3c-1.65,0-3-1.35-3-3v-4h2v4c0,.55.45,1,1,1Zm19-1c0,.55-.45,1-1,1h-4v2h4c1.65,0,3-1.35,3-3v-4h-2v4ZM21,0h-4v2h4c.55,0,1,.45,1,1v4h2V3c0-1.65-1.35-3-3-3ZM0,3v4h2V3c0-.55.45-1,1-1h4V0H3C1.35,0,0,1.35,0,3Z"/>
      <g id="_01_align_center" data-name=" 01 align center">
        <path class="cls-1" d="m18.74,11.53h0c-.5-1.1-2.46-4.67-6.74-4.67s-6.24,3.57-6.74,4.67c-.14.3-.14.64,0,.94.5,1.09,2.46,4.67,6.74,4.67s6.24-3.57,6.74-4.67c.14-.3.14-.64,0-.93Zm-6.74,3.89c-3.08,0-4.52-2.62-4.89-3.42.37-.8,1.81-3.43,4.89-3.43s4.52,2.61,4.89,3.42c-.37.81-1.81,3.42-4.89,3.42Z"/>
        <path class="cls-1" d="m12,9.69c-1.27,0-2.31,1.03-2.31,2.31s1.03,2.31,2.31,2.31,2.31-1.03,2.31-2.31c0-1.27-1.03-2.31-2.31-2.31Zm0,3.13c-.46,0-.83-.37-.83-.83s.37-.83.83-.83.83.37.83.83-.37.83-.83.83Z"/>
      </g>
    </g>
  </g>
</svg>