<svg width="12" height="12" viewBox="0 0 12 12" fill="none" xmlns="http://www.w3.org/2000/svg">
<g id="slideout">
<path id="Vector" d="M9.4 10H5V2H9.4C9.69653 2 9.85878 2.00078 9.97537 2.0103L9.98855 2.01145L9.9897 2.02463C9.99922 2.14122 10 2.30347 10 2.6V9.4C10 9.69653 9.99922 9.85878 9.9897 9.97537L9.98855 9.98855L9.97537 9.9897C9.85878 9.99922 9.69653 10 9.4 10ZM2.6 10C2.30347 10 2.14122 9.99922 2.02463 9.9897L2.01145 9.98855L2.0103 9.97537C2.00078 9.85878 2 9.69653 2 9.4V2.6C2 2.30347 2.00078 2.14122 2.0103 2.02463L2.01145 2.01145L2.02463 2.0103C2.14122 2.00078 2.30347 2 2.6 2H4V10H2.6ZM1.10899 10.454C1.20487 10.6422 1.35785 10.7951 1.54601 10.891C1.75992 11 2.03995 11 2.6 11H9.4C9.96005 11 10.2401 11 10.454 10.891C10.6422 10.7951 10.7951 10.6422 10.891 10.454C11 10.2401 11 9.96005 11 9.4V2.6C11 2.03995 11 1.75992 10.891 1.54601C10.7951 1.35785 10.6422 1.20487 10.454 1.10899C10.2401 1 9.96005 1 9.4 1H2.6C2.03995 1 1.75992 1 1.54601 1.10899C1.35785 1.20487 1.20487 1.35785 1.10899 1.54601C1 1.75992 1 2.03995 1 2.6V9.4C1 9.96005 1 10.2401 1.10899 10.454ZM6.85355 8.35355C6.65829 8.54882 6.34171 8.54882 6.14645 8.35355C5.95118 8.15829 5.95118 7.84171 6.14645 7.64645L7.79289 6L6.14645 4.35355C5.95118 4.15829 5.95118 3.84171 6.14645 3.64645C6.34171 3.45118 6.65829 3.45118 6.85355 3.64645L8.85355 5.64645C9.04882 5.84171 9.04882 6.15829 8.85355 6.35355L6.85355 8.35355Z" fill="#0D161D"/>
</g>
</svg>
